<mxfile host="Electron" agent="Mozilla/5.0 (Windows NT 10.0; Win64; x64) AppleWebKit/537.36 (KHTML, like Gecko) draw.io/26.1.1 Chrome/132.0.6834.210 Electron/34.3.3 Safari/537.36" version="26.1.1">
  <diagram name="Page-1" id="CiqbmujAwX6FjwYtwEhe">
    <mxGraphModel dx="2071" dy="823" grid="1" gridSize="10" guides="1" tooltips="1" connect="1" arrows="1" fold="1" page="1" pageScale="1" pageWidth="850" pageHeight="1100" math="0" shadow="0">
      <root>
        <mxCell id="0" />
        <mxCell id="1" parent="0" />
        <mxCell id="imRUidpdpuR5eMQZmy-u-1" value="INSTANCE" style="rounded=1;whiteSpace=wrap;html=1;" parent="1" vertex="1">
          <mxGeometry x="250" y="90" width="130" height="50" as="geometry" />
        </mxCell>
        <mxCell id="imRUidpdpuR5eMQZmy-u-2" value="DATABASE&lt;div&gt;orclcdb&lt;/div&gt;" style="rounded=1;whiteSpace=wrap;html=1;" parent="1" vertex="1">
          <mxGeometry x="360" y="20" width="130" height="50" as="geometry" />
        </mxCell>
        <mxCell id="imRUidpdpuR5eMQZmy-u-3" value="INSTANCE" style="rounded=1;whiteSpace=wrap;html=1;" parent="1" vertex="1">
          <mxGeometry x="650" y="90" width="130" height="50" as="geometry" />
        </mxCell>
        <mxCell id="imRUidpdpuR5eMQZmy-u-4" value="MEMORY" style="rounded=1;whiteSpace=wrap;html=1;" parent="1" vertex="1">
          <mxGeometry x="160" y="170" width="130" height="50" as="geometry" />
        </mxCell>
        <mxCell id="imRUidpdpuR5eMQZmy-u-5" value="BACKGROUND PROCESSES" style="rounded=1;whiteSpace=wrap;html=1;" parent="1" vertex="1">
          <mxGeometry x="320" y="170" width="130" height="50" as="geometry" />
        </mxCell>
        <mxCell id="imRUidpdpuR5eMQZmy-u-6" value="MEMORY" style="rounded=1;whiteSpace=wrap;html=1;" parent="1" vertex="1">
          <mxGeometry x="550" y="160" width="130" height="50" as="geometry" />
        </mxCell>
        <mxCell id="imRUidpdpuR5eMQZmy-u-7" value="BACKGROUND PROCESSES" style="rounded=1;whiteSpace=wrap;html=1;" parent="1" vertex="1">
          <mxGeometry x="700" y="160" width="130" height="50" as="geometry" />
        </mxCell>
        <mxCell id="imRUidpdpuR5eMQZmy-u-8" value="SGA&lt;div&gt;(Shared Global Area)&lt;/div&gt;" style="rounded=1;whiteSpace=wrap;html=1;" parent="1" vertex="1">
          <mxGeometry x="50" y="250" width="130" height="50" as="geometry" />
        </mxCell>
        <mxCell id="imRUidpdpuR5eMQZmy-u-9" value="PGA&lt;div&gt;(P&lt;span style=&quot;background-color: transparent; color: light-dark(rgb(0, 0, 0), rgb(255, 255, 255));&quot;&gt;ersonal Global Area)&lt;/span&gt;&lt;/div&gt;" style="rounded=1;whiteSpace=wrap;html=1;" parent="1" vertex="1">
          <mxGeometry x="200" y="250" width="130" height="50" as="geometry" />
        </mxCell>
        <mxCell id="imRUidpdpuR5eMQZmy-u-10" value="" style="endArrow=classic;startArrow=classic;html=1;rounded=0;exitX=0;exitY=0;exitDx=0;exitDy=0;" parent="1" source="imRUidpdpuR5eMQZmy-u-3" edge="1">
          <mxGeometry width="50" height="50" relative="1" as="geometry">
            <mxPoint x="450" y="100" as="sourcePoint" />
            <mxPoint x="490" y="70" as="targetPoint" />
          </mxGeometry>
        </mxCell>
        <mxCell id="imRUidpdpuR5eMQZmy-u-11" value="" style="endArrow=classic;startArrow=classic;html=1;rounded=0;" parent="1" edge="1">
          <mxGeometry width="50" height="50" relative="1" as="geometry">
            <mxPoint x="320" y="90" as="sourcePoint" />
            <mxPoint x="360" y="60" as="targetPoint" />
          </mxGeometry>
        </mxCell>
        <mxCell id="imRUidpdpuR5eMQZmy-u-12" value="" style="endArrow=classic;startArrow=classic;html=1;rounded=0;" parent="1" edge="1">
          <mxGeometry width="50" height="50" relative="1" as="geometry">
            <mxPoint x="230" y="170" as="sourcePoint" />
            <mxPoint x="270" y="140" as="targetPoint" />
          </mxGeometry>
        </mxCell>
        <mxCell id="imRUidpdpuR5eMQZmy-u-13" value="" style="endArrow=classic;startArrow=classic;html=1;rounded=0;exitX=0.5;exitY=0;exitDx=0;exitDy=0;" parent="1" source="imRUidpdpuR5eMQZmy-u-5" edge="1">
          <mxGeometry width="50" height="50" relative="1" as="geometry">
            <mxPoint x="330" y="170" as="sourcePoint" />
            <mxPoint x="370" y="140" as="targetPoint" />
          </mxGeometry>
        </mxCell>
        <mxCell id="imRUidpdpuR5eMQZmy-u-14" value="" style="endArrow=classic;startArrow=classic;html=1;rounded=0;" parent="1" edge="1">
          <mxGeometry width="50" height="50" relative="1" as="geometry">
            <mxPoint x="130" y="250" as="sourcePoint" />
            <mxPoint x="170" y="220" as="targetPoint" />
          </mxGeometry>
        </mxCell>
        <mxCell id="imRUidpdpuR5eMQZmy-u-15" value="" style="endArrow=classic;startArrow=classic;html=1;rounded=0;" parent="1" edge="1">
          <mxGeometry width="50" height="50" relative="1" as="geometry">
            <mxPoint x="230" y="250" as="sourcePoint" />
            <mxPoint x="270" y="220" as="targetPoint" />
          </mxGeometry>
        </mxCell>
        <mxCell id="imRUidpdpuR5eMQZmy-u-16" value="Data Buffer Cache" style="rounded=1;whiteSpace=wrap;html=1;" parent="1" vertex="1">
          <mxGeometry x="10" y="330" width="130" height="50" as="geometry" />
        </mxCell>
        <mxCell id="imRUidpdpuR5eMQZmy-u-17" value="Log Buffer Cache" style="rounded=1;whiteSpace=wrap;html=1;" parent="1" vertex="1">
          <mxGeometry x="10" y="390" width="130" height="50" as="geometry" />
        </mxCell>
        <mxCell id="imRUidpdpuR5eMQZmy-u-18" value="Shared Pool" style="rounded=1;whiteSpace=wrap;html=1;" parent="1" vertex="1">
          <mxGeometry x="10" y="450" width="130" height="50" as="geometry" />
        </mxCell>
        <mxCell id="imRUidpdpuR5eMQZmy-u-19" value="Large Pool" style="rounded=1;whiteSpace=wrap;html=1;" parent="1" vertex="1">
          <mxGeometry x="10" y="630" width="130" height="50" as="geometry" />
        </mxCell>
        <mxCell id="imRUidpdpuR5eMQZmy-u-20" value="Streams Pool" style="rounded=1;whiteSpace=wrap;html=1;" parent="1" vertex="1">
          <mxGeometry x="10" y="690" width="130" height="50" as="geometry" />
        </mxCell>
        <mxCell id="imRUidpdpuR5eMQZmy-u-21" value="Java Pool" style="rounded=1;whiteSpace=wrap;html=1;" parent="1" vertex="1">
          <mxGeometry x="10" y="750" width="130" height="50" as="geometry" />
        </mxCell>
        <mxCell id="imRUidpdpuR5eMQZmy-u-22" value="" style="endArrow=classic;startArrow=classic;html=1;rounded=0;" parent="1" edge="1">
          <mxGeometry width="50" height="50" relative="1" as="geometry">
            <mxPoint x="90" y="330" as="sourcePoint" />
            <mxPoint x="130" y="300" as="targetPoint" />
          </mxGeometry>
        </mxCell>
        <mxCell id="imRUidpdpuR5eMQZmy-u-23" value="library cache&lt;div&gt;SQLID&lt;br&gt;&lt;div&gt;(execution plan)&lt;/div&gt;&lt;/div&gt;" style="rounded=1;whiteSpace=wrap;html=1;" parent="1" vertex="1">
          <mxGeometry x="44" y="510" width="130" height="50" as="geometry" />
        </mxCell>
        <mxCell id="imRUidpdpuR5eMQZmy-u-24" value="dictionary cache" style="rounded=1;whiteSpace=wrap;html=1;" parent="1" vertex="1">
          <mxGeometry x="44" y="570" width="126" height="20" as="geometry" />
        </mxCell>
        <mxCell id="imRUidpdpuR5eMQZmy-u-25" value="session info&lt;div&gt;cursor handler&lt;/div&gt;&lt;div&gt;group by / order by&lt;/div&gt;&lt;div&gt;sort&amp;nbsp;&lt;span style=&quot;background-color: transparent; color: light-dark(rgb(0, 0, 0), rgb(255, 255, 255));&quot;&gt;merge&amp;nbsp;&lt;/span&gt;&lt;span style=&quot;background-color: transparent; color: light-dark(rgb(0, 0, 0), rgb(255, 255, 255));&quot;&gt;join / hash join&lt;/span&gt;&lt;/div&gt;" style="rounded=1;whiteSpace=wrap;html=1;" parent="1" vertex="1">
          <mxGeometry x="225" y="330" width="180" height="90" as="geometry" />
        </mxCell>
        <mxCell id="imRUidpdpuR5eMQZmy-u-26" value="" style="endArrow=classic;startArrow=classic;html=1;rounded=0;" parent="1" edge="1">
          <mxGeometry width="50" height="50" relative="1" as="geometry">
            <mxPoint x="250" y="330" as="sourcePoint" />
            <mxPoint x="290" y="300" as="targetPoint" />
          </mxGeometry>
        </mxCell>
        <mxCell id="imRUidpdpuR5eMQZmy-u-27" value="" style="endArrow=classic;startArrow=classic;html=1;rounded=0;entryX=0.813;entryY=1.06;entryDx=0;entryDy=0;entryPerimeter=0;" parent="1" target="imRUidpdpuR5eMQZmy-u-5" edge="1">
          <mxGeometry width="50" height="50" relative="1" as="geometry">
            <mxPoint x="420" y="480" as="sourcePoint" />
            <mxPoint x="550" y="430" as="targetPoint" />
          </mxGeometry>
        </mxCell>
        <mxCell id="imRUidpdpuR5eMQZmy-u-28" value="SMON" style="rounded=1;whiteSpace=wrap;html=1;" parent="1" vertex="1">
          <mxGeometry x="360" y="480" width="110" height="30" as="geometry" />
        </mxCell>
        <mxCell id="imRUidpdpuR5eMQZmy-u-29" value="PMON" style="rounded=1;whiteSpace=wrap;html=1;" parent="1" vertex="1">
          <mxGeometry x="360" y="520" width="110" height="30" as="geometry" />
        </mxCell>
        <mxCell id="imRUidpdpuR5eMQZmy-u-30" value="DBWR" style="rounded=1;whiteSpace=wrap;html=1;" parent="1" vertex="1">
          <mxGeometry x="360" y="560" width="110" height="30" as="geometry" />
        </mxCell>
        <mxCell id="imRUidpdpuR5eMQZmy-u-31" value="LGWR" style="rounded=1;whiteSpace=wrap;html=1;" parent="1" vertex="1">
          <mxGeometry x="360" y="600" width="110" height="30" as="geometry" />
        </mxCell>
        <mxCell id="imRUidpdpuR5eMQZmy-u-32" value="ARCH" style="rounded=1;whiteSpace=wrap;html=1;" parent="1" vertex="1">
          <mxGeometry x="360" y="640" width="110" height="30" as="geometry" />
        </mxCell>
        <mxCell id="imRUidpdpuR5eMQZmy-u-33" value="CHKPT" style="rounded=1;whiteSpace=wrap;html=1;" parent="1" vertex="1">
          <mxGeometry x="360" y="680" width="110" height="30" as="geometry" />
        </mxCell>
        <mxCell id="imRUidpdpuR5eMQZmy-u-34" value="JQ" style="rounded=1;whiteSpace=wrap;html=1;" parent="1" vertex="1">
          <mxGeometry x="360" y="720" width="110" height="30" as="geometry" />
        </mxCell>
        <mxCell id="imRUidpdpuR5eMQZmy-u-37" style="edgeStyle=orthogonalEdgeStyle;rounded=0;orthogonalLoop=1;jettySize=auto;html=1;exitX=0.5;exitY=1;exitDx=0;exitDy=0;" parent="1" source="imRUidpdpuR5eMQZmy-u-35" edge="1">
          <mxGeometry relative="1" as="geometry">
            <mxPoint x="700" y="420" as="targetPoint" />
          </mxGeometry>
        </mxCell>
        <mxCell id="imRUidpdpuR5eMQZmy-u-35" value="Physical Files (ASM)" style="rounded=1;whiteSpace=wrap;html=1;" parent="1" vertex="1">
          <mxGeometry x="640" y="330" width="130" height="50" as="geometry" />
        </mxCell>
        <mxCell id="imRUidpdpuR5eMQZmy-u-38" value="Datafiles" style="rounded=1;whiteSpace=wrap;html=1;" parent="1" vertex="1">
          <mxGeometry x="650" y="420" width="110" height="30" as="geometry" />
        </mxCell>
        <mxCell id="imRUidpdpuR5eMQZmy-u-39" value="RedoLog Files" style="rounded=1;whiteSpace=wrap;html=1;" parent="1" vertex="1">
          <mxGeometry x="650" y="460" width="110" height="30" as="geometry" />
        </mxCell>
        <mxCell id="imRUidpdpuR5eMQZmy-u-40" value="Archivelog Files" style="rounded=1;whiteSpace=wrap;html=1;" parent="1" vertex="1">
          <mxGeometry x="650" y="500" width="110" height="30" as="geometry" />
        </mxCell>
        <mxCell id="imRUidpdpuR5eMQZmy-u-41" value="Controlfiles" style="rounded=1;whiteSpace=wrap;html=1;" parent="1" vertex="1">
          <mxGeometry x="650" y="540" width="110" height="30" as="geometry" />
        </mxCell>
        <mxCell id="imRUidpdpuR5eMQZmy-u-42" value="Parameter" style="rounded=1;whiteSpace=wrap;html=1;" parent="1" vertex="1">
          <mxGeometry x="650" y="580" width="110" height="30" as="geometry" />
        </mxCell>
        <mxCell id="imRUidpdpuR5eMQZmy-u-43" value="Alert Log" style="rounded=1;whiteSpace=wrap;html=1;" parent="1" vertex="1">
          <mxGeometry x="650" y="620" width="110" height="30" as="geometry" />
        </mxCell>
        <mxCell id="imRUidpdpuR5eMQZmy-u-44" value="Password" style="rounded=1;whiteSpace=wrap;html=1;" parent="1" vertex="1">
          <mxGeometry x="650" y="660" width="110" height="30" as="geometry" />
        </mxCell>
        <mxCell id="imRUidpdpuR5eMQZmy-u-45" value="Trace File" style="rounded=1;whiteSpace=wrap;html=1;" parent="1" vertex="1">
          <mxGeometry x="650" y="700" width="110" height="30" as="geometry" />
        </mxCell>
        <mxCell id="imRUidpdpuR5eMQZmy-u-46" value="Backup Files" style="rounded=1;whiteSpace=wrap;html=1;" parent="1" vertex="1">
          <mxGeometry x="650" y="740" width="110" height="30" as="geometry" />
        </mxCell>
        <mxCell id="imRUidpdpuR5eMQZmy-u-48" value="" style="endArrow=classic;html=1;rounded=0;" parent="1" edge="1">
          <mxGeometry width="50" height="50" relative="1" as="geometry">
            <mxPoint x="140" y="360" as="sourcePoint" />
            <mxPoint x="350" y="570" as="targetPoint" />
          </mxGeometry>
        </mxCell>
        <mxCell id="imRUidpdpuR5eMQZmy-u-49" value="" style="endArrow=classic;html=1;rounded=0;entryX=0;entryY=0.5;entryDx=0;entryDy=0;" parent="1" target="imRUidpdpuR5eMQZmy-u-38" edge="1">
          <mxGeometry width="50" height="50" relative="1" as="geometry">
            <mxPoint x="480" y="580" as="sourcePoint" />
            <mxPoint x="530" y="530" as="targetPoint" />
          </mxGeometry>
        </mxCell>
        <mxCell id="imRUidpdpuR5eMQZmy-u-50" value="ASMM" style="text;html=1;align=center;verticalAlign=middle;resizable=0;points=[];autosize=1;strokeColor=none;fillColor=none;" parent="1" vertex="1">
          <mxGeometry x="-10" y="260" width="60" height="30" as="geometry" />
        </mxCell>
        <mxCell id="imRUidpdpuR5eMQZmy-u-51" value="AMM" style="text;html=1;align=center;verticalAlign=middle;resizable=0;points=[];autosize=1;strokeColor=none;fillColor=none;" parent="1" vertex="1">
          <mxGeometry x="110" y="180" width="50" height="30" as="geometry" />
        </mxCell>
        <mxCell id="imRUidpdpuR5eMQZmy-u-52" value="" style="endArrow=classic;html=1;rounded=0;" parent="1" edge="1">
          <mxGeometry width="50" height="50" relative="1" as="geometry">
            <mxPoint x="140" y="420" as="sourcePoint" />
            <mxPoint x="350" y="610" as="targetPoint" />
          </mxGeometry>
        </mxCell>
        <mxCell id="imRUidpdpuR5eMQZmy-u-53" value="" style="endArrow=classic;html=1;rounded=0;entryX=0;entryY=0.75;entryDx=0;entryDy=0;" parent="1" target="imRUidpdpuR5eMQZmy-u-39" edge="1">
          <mxGeometry width="50" height="50" relative="1" as="geometry">
            <mxPoint x="480" y="610" as="sourcePoint" />
            <mxPoint x="640" y="475" as="targetPoint" />
          </mxGeometry>
        </mxCell>
        <mxCell id="imRUidpdpuR5eMQZmy-u-55" value="" style="endArrow=classic;html=1;rounded=0;" parent="1" edge="1">
          <mxGeometry width="50" height="50" relative="1" as="geometry">
            <mxPoint x="760" y="480" as="sourcePoint" />
            <mxPoint x="760" y="520" as="targetPoint" />
            <Array as="points">
              <mxPoint x="780" y="500" />
              <mxPoint x="760" y="520" />
            </Array>
          </mxGeometry>
        </mxCell>
        <mxCell id="imRUidpdpuR5eMQZmy-u-56" value="RedoLog Files" style="rounded=1;whiteSpace=wrap;html=1;" parent="1" vertex="1">
          <mxGeometry x="780" y="440" width="110" height="30" as="geometry" />
        </mxCell>
        <mxCell id="imRUidpdpuR5eMQZmy-u-57" value="RedoLog Files" style="rounded=1;whiteSpace=wrap;html=1;" parent="1" vertex="1">
          <mxGeometry x="800" y="460" width="110" height="30" as="geometry" />
        </mxCell>
        <mxCell id="imRUidpdpuR5eMQZmy-u-59" value="RedoLog Files" style="rounded=1;whiteSpace=wrap;html=1;" parent="1" vertex="1">
          <mxGeometry x="820" y="480" width="110" height="30" as="geometry" />
        </mxCell>
        <mxCell id="imRUidpdpuR5eMQZmy-u-60" value="" style="endArrow=classic;html=1;rounded=0;entryX=0;entryY=0.75;entryDx=0;entryDy=0;" parent="1" edge="1">
          <mxGeometry width="50" height="50" relative="1" as="geometry">
            <mxPoint x="480" y="657" as="sourcePoint" />
            <mxPoint x="650" y="530" as="targetPoint" />
          </mxGeometry>
        </mxCell>
        <mxCell id="imRUidpdpuR5eMQZmy-u-61" value="SCN" style="text;html=1;align=center;verticalAlign=middle;resizable=0;points=[];autosize=1;strokeColor=none;fillColor=none;" parent="1" vertex="1">
          <mxGeometry x="760" y="540" width="50" height="30" as="geometry" />
        </mxCell>
        <mxCell id="imRUidpdpuR5eMQZmy-u-63" value="Spfile" style="text;html=1;align=center;verticalAlign=middle;resizable=0;points=[];autosize=1;strokeColor=none;fillColor=none;" parent="1" vertex="1">
          <mxGeometry x="760" y="580" width="50" height="30" as="geometry" />
        </mxCell>
        <mxCell id="imRUidpdpuR5eMQZmy-u-64" value="orapwd" style="text;html=1;align=center;verticalAlign=middle;resizable=0;points=[];autosize=1;strokeColor=none;fillColor=none;" parent="1" vertex="1">
          <mxGeometry x="760" y="660" width="60" height="30" as="geometry" />
        </mxCell>
        <mxCell id="imRUidpdpuR5eMQZmy-u-65" value="datafiles + archivelogs + controlfiles + parameter + password" style="text;html=1;align=center;verticalAlign=middle;resizable=0;points=[];autosize=1;strokeColor=none;fillColor=none;" parent="1" vertex="1">
          <mxGeometry x="530" y="770" width="350" height="30" as="geometry" />
        </mxCell>
        <mxCell id="imRUidpdpuR5eMQZmy-u-66" value="" style="endArrow=classic;html=1;rounded=0;entryX=0.815;entryY=-0.026;entryDx=0;entryDy=0;entryPerimeter=0;" parent="1" target="imRUidpdpuR5eMQZmy-u-65" edge="1">
          <mxGeometry width="50" height="50" relative="1" as="geometry">
            <mxPoint x="760" y="760" as="sourcePoint" />
            <mxPoint x="810" y="710" as="targetPoint" />
          </mxGeometry>
        </mxCell>
        <mxCell id="imRUidpdpuR5eMQZmy-u-67" value="Default&lt;div&gt;Keep&lt;/div&gt;&lt;div&gt;Recycle&lt;/div&gt;&lt;div&gt;Flash&lt;/div&gt;" style="text;html=1;align=center;verticalAlign=middle;resizable=0;points=[];autosize=1;strokeColor=none;fillColor=none;" parent="1" vertex="1">
          <mxGeometry x="-60" y="325" width="70" height="70" as="geometry" />
        </mxCell>
        <mxCell id="imRUidpdpuR5eMQZmy-u-68" value="LRU" style="text;html=1;align=center;verticalAlign=middle;resizable=0;points=[];autosize=1;strokeColor=none;fillColor=none;" parent="1" vertex="1">
          <mxGeometry x="70" y="220" width="50" height="30" as="geometry" />
        </mxCell>
        <mxCell id="imRUidpdpuR5eMQZmy-u-69" value="instance recovery" style="text;html=1;align=center;verticalAlign=middle;resizable=0;points=[];autosize=1;strokeColor=none;fillColor=none;" parent="1" vertex="1">
          <mxGeometry x="460" y="480" width="120" height="30" as="geometry" />
        </mxCell>
        <mxCell id="imRUidpdpuR5eMQZmy-u-70" value="process recovery" style="text;html=1;align=center;verticalAlign=middle;resizable=0;points=[];autosize=1;strokeColor=none;fillColor=none;" parent="1" vertex="1">
          <mxGeometry x="465" y="520" width="110" height="30" as="geometry" />
        </mxCell>
        <mxCell id="imRUidpdpuR5eMQZmy-u-71" value="LREG" style="rounded=1;whiteSpace=wrap;html=1;" parent="1" vertex="1">
          <mxGeometry x="360" y="760" width="110" height="30" as="geometry" />
        </mxCell>
        <mxCell id="imRUidpdpuR5eMQZmy-u-72" value="RECO" style="rounded=1;whiteSpace=wrap;html=1;" parent="1" vertex="1">
          <mxGeometry x="360" y="800" width="110" height="30" as="geometry" />
        </mxCell>
        <mxCell id="kyzyFnmIs116QbWcKWou-1" value="result cache" style="rounded=1;whiteSpace=wrap;html=1;" parent="1" vertex="1">
          <mxGeometry x="44" y="600" width="126" height="20" as="geometry" />
        </mxCell>
      </root>
    </mxGraphModel>
  </diagram>
</mxfile>
